# xmcd CD Database Entry
#
# Track frame offsets:
# 150
# 17507
# 34137
# 53065
# 69662
# 84490
# 100925
# 116580
# 131940
# 145485
# 164692
# 181140
# 196135
# 214247
# 228885
# 247272
# 265147
# 288925
# 307907
#
# Disc length: 4352 seconds
#
# Revision: 1
# Processed by: cddbd v1.4PL0 Copyright (c) Steve Scherf et al.
# Submitted via: tcd 2.0b
#
DISCID=1510fe13
DTITLE=Cliff Richard/Private Collection 1979-1988
DYEAR=1900
DGENRE=
TTITLE0=Some People
TTITLE1=Wired For Sound
TTITLE2=All I Ask Of You
TTITLE3=Carrie
TTITLE4=True Love Ways
TTITLE5=Dreamin'
TTITLE6=She Means Nothing To Me
TTITLE7=A Little In Love
TTITLE8=Daddy's Home
TTITLE9=We Don't Talk Any More
TTITLE10=Never Say Die
TTITLE11=The Only Way Out
TTITLE12=Suddenly
TTITLE13=Plese Don't Fall In Love
TTITLE14=Little Town
TTITLE15=My Pretty One
TTITLE16=Ocean Deep
TTITLE17=She's So Beautiful
TTITLE18=Mistletoe And Wine
EXTD=
EXTT0=
EXTT1=
EXTT2=
EXTT3=
EXTT4=
EXTT5=
EXTT6=
EXTT7=
EXTT8=
EXTT9=
EXTT10=
EXTT11=
EXTT12=
EXTT13=
EXTT14=
EXTT15=
EXTT16=
EXTT17=
EXTT18=
PLAYORDER=
